<?xml version="1.0" encoding="UTF-8"?>
<!DOCTYPE svg PUBLIC "-//W3C//DTD SVG 1.1//EN" "http://www.w3.org/Graphics/SVG/1.1/DTD/svg11.dtd">
<!-- Creator: CorelDRAW 2019 (64-Bit) -->
<svg xmlns="http://www.w3.org/2000/svg" xml:space="preserve" width="82.7565mm" height="16.3039mm" version="1.1" style="shape-rendering:geometricPrecision; text-rendering:geometricPrecision; image-rendering:optimizeQuality; fill-rule:evenodd; clip-rule:evenodd"
viewBox="0 0 1268.31 249.87"
 xmlns:xlink="http://www.w3.org/1999/xlink"
 xmlns:xodm="http://www.corel.com/coreldraw/odm/2003">
 <defs>
  <style type="text/css">
   <![CDATA[
    .fil0 {fill:#CE562A;fill-rule:nonzero}
    .fil1 {fill:#E5E4E5;fill-rule:nonzero}
   ]]>
  </style>
 </defs>
 <g id="Layer_x0020_1">
  <metadata id="CorelCorpID_0Corel-Layer"/>
  <path class="fil0" d="M55.67 84.21l-17.96 -25.57c-2.22,0.16 -3.96,0.24 -5.23,0.24l-20.58 0 0 25.33 -11.89 0 0 -83.26 32.47 0c10.78,0 19.27,2.58 25.45,7.73 6.18,5.15 9.28,12.25 9.28,21.29 0,6.42 -1.58,11.89 -4.76,16.42 -3.17,4.52 -7.69,7.81 -13.56,9.87l19.75 27.95 -12.97 0zm-23.55 -35.45c7.53,0 13.28,-1.63 17.25,-4.88 3.96,-3.25 5.95,-7.89 5.95,-13.92 0,-6.03 -1.98,-10.65 -5.95,-13.86 -3.96,-3.21 -9.71,-4.82 -17.25,-4.82l-20.22 0 0 37.47 20.22 0z"/>
  <path id="1" class="fil0" d="M139.52 63.4l-44.25 0 -9.16 20.82 -12.25 0 37.71 -83.26 11.78 0 37.82 83.26 -12.49 0 -9.16 -20.82zm-4.16 -9.52l-17.96 -40.8 -17.96 40.8 35.92 0z"/>
  <path id="2" class="fil0" d="M173.54 0.95l35.09 0c8.8,0 16.61,1.75 23.43,5.23 6.82,3.49 12.11,8.39 15.88,14.69 3.77,6.31 5.65,13.54 5.65,21.71 0,8.17 -1.88,15.4 -5.65,21.71 -3.77,6.31 -9.06,11.2 -15.88,14.69 -6.82,3.49 -14.63,5.23 -23.43,5.23l-35.09 0 0 -83.26zm34.38 72.91c6.74,0 12.67,-1.31 17.78,-3.92 5.11,-2.62 9.06,-6.29 11.83,-11 2.78,-4.72 4.16,-10.17 4.16,-16.36 0,-6.19 -1.39,-11.64 -4.16,-16.35 -2.78,-4.72 -6.72,-8.39 -11.83,-11 -5.12,-2.62 -11.04,-3.93 -17.78,-3.93l-22.48 0 0 62.57 22.48 0z"/>
  <polygon id="3" class="fil0" points="343.39,0.95 343.39,84.21 331.5,84.21 331.5,47.1 283.68,47.1 283.68,84.21 271.79,84.21 271.79,0.95 283.68,0.95 283.68,36.75 331.5,36.75 331.5,0.95 "/>
  <polygon id="4" class="fil0" points="368.37,0.95 380.27,0.95 380.27,84.21 368.37,84.21 "/>
  <polygon id="5" class="fil0" points="432.36,47.22 417.14,62.68 417.14,84.21 405.24,84.21 405.24,0.95 417.14,0.95 417.14,47.46 462.34,0.95 475.9,0.95 440.33,38.42 478.16,84.21 464.24,84.21 "/>
  <path id="6" class="fil0" d="M540.48 63.4l-44.25 0 -9.16 20.82 -12.25 0 37.71 -83.26 11.78 0 37.82 83.26 -12.49 0 -9.16 -20.82zm-4.16 -9.52l-17.96 -40.8 -17.96 40.8 35.92 0z"/>
  <path id="7" class="fil0" d="M659.55 63.4l-44.25 0 -9.16 20.82 -12.25 0 37.71 -83.26 11.78 0 37.82 83.26 -12.49 0 -9.16 -20.82zm-4.16 -9.52l-17.96 -40.8 -17.96 40.8 35.92 0z"/>
  <polygon id="8" class="fil0" points="720.45,55.43 720.45,84.21 708.67,84.21 708.67,55.19 675.6,0.95 688.33,0.95 714.98,44.84 741.74,0.95 753.51,0.95 "/>
  <polygon id="9" class="fil0" points="797.05,55.43 797.05,84.21 785.27,84.21 785.27,55.19 752.2,0.95 764.93,0.95 791.57,44.84 818.34,0.95 830.11,0.95 "/>
  <path id="10" class="fil0" d="M890.18 63.4l-44.25 0 -9.16 20.82 -12.25 0 37.71 -83.26 11.78 0 37.82 83.26 -12.49 0 -9.16 -20.82zm-4.16 -9.52l-17.96 -40.8 -17.96 40.8 35.92 0z"/>
  <polygon id="11" class="fil0" points="995.8,0.95 995.8,84.21 986.05,84.21 936.09,22.12 936.09,84.21 924.2,84.21 924.2,0.95 933.95,0.95 983.91,63.04 983.91,0.95 "/>
  <path id="12" class="fil0" d="M1078.47 42.11l11.42 0 0 32.47c-4.12,3.41 -8.92,6.03 -14.39,7.85 -5.47,1.82 -11.18,2.74 -17.13,2.74 -8.4,0 -15.98,-1.84 -22.72,-5.53 -6.74,-3.69 -12.03,-8.76 -15.88,-15.22 -3.85,-6.46 -5.77,-13.74 -5.77,-21.83 0,-8.09 1.92,-15.38 5.77,-21.89 3.85,-6.5 9.16,-11.58 15.94,-15.22 6.78,-3.65 14.41,-5.47 22.9,-5.47 6.66,0 12.71,1.09 18.14,3.27 5.43,2.18 10.05,5.37 13.86,9.57l-7.37 7.37c-6.66,-6.42 -14.71,-9.63 -24.15,-9.63 -6.34,0 -12.03,1.37 -17.07,4.1 -5.04,2.74 -8.98,6.54 -11.84,11.42 -2.85,4.88 -4.28,10.37 -4.28,16.47 0,6.03 1.43,11.48 4.28,16.36 2.86,4.88 6.8,8.7 11.84,11.48 5.03,2.78 10.69,4.16 16.95,4.16 7.45,0 13.96,-1.79 19.51,-5.35l0 -27.12z"/>
  <path id="13" class="fil0" d="M1165.66 63.4l-44.25 0 -9.16 20.82 -12.25 0 37.71 -83.26 11.78 0 37.82 83.26 -12.49 0 -9.16 -20.82zm-4.16 -9.52l-17.96 -40.8 -17.96 40.8 35.92 0z"/>
  <path id="14" class="fil0" d="M1255.34 84.21l-17.96 -25.57c-2.22,0.16 -3.96,0.24 -5.23,0.24l-20.58 0 0 25.33 -11.89 0 0 -83.26 32.47 0c10.78,0 19.27,2.58 25.45,7.73 6.18,5.15 9.28,12.25 9.28,21.29 0,6.42 -1.58,11.89 -4.76,16.42 -3.17,4.52 -7.69,7.81 -13.56,9.87l19.75 27.95 -12.97 0zm-23.55 -35.45c7.53,0 13.28,-1.63 17.25,-4.88 3.96,-3.25 5.95,-7.89 5.95,-13.92 0,-6.03 -1.98,-10.65 -5.95,-13.86 -3.96,-3.21 -9.71,-4.82 -17.25,-4.82l-20.22 0 0 37.47 20.22 0z"/>
  <path class="fil1" d="M44.01 249.87c-8.32,0 -15.84,-1.84 -22.54,-5.53 -6.7,-3.69 -11.95,-8.76 -15.76,-15.22 -3.81,-6.46 -5.71,-13.74 -5.71,-21.83 0,-8.09 1.9,-15.36 5.71,-21.83 3.81,-6.46 9.08,-11.54 15.82,-15.23 6.74,-3.69 14.27,-5.53 22.6,-5.53 6.5,0 12.45,1.09 17.84,3.27 5.39,2.18 9.99,5.41 13.8,9.69l-7.73 7.49c-6.27,-6.58 -14.08,-9.87 -23.43,-9.87 -6.18,0 -11.77,1.39 -16.77,4.16 -4.99,2.78 -8.9,6.6 -11.72,11.48 -2.82,4.88 -4.22,10.33 -4.22,16.35 0,6.03 1.41,11.48 4.22,16.36 2.81,4.88 6.72,8.7 11.72,11.48 5,2.78 10.59,4.16 16.77,4.16 9.28,0 17.09,-3.33 23.43,-9.99l7.73 7.49c-3.81,4.28 -8.43,7.53 -13.86,9.75 -5.43,2.22 -11.4,3.33 -17.9,3.33z"/>
  <path id="1" class="fil1" d="M148.68 206.81l11.42 0 0 32.47c-4.12,3.41 -8.92,6.03 -14.39,7.85 -5.47,1.82 -11.18,2.74 -17.13,2.74 -8.4,0 -15.98,-1.84 -22.72,-5.53 -6.74,-3.69 -12.03,-8.76 -15.88,-15.22 -3.85,-6.46 -5.77,-13.74 -5.77,-21.83 0,-8.09 1.92,-15.38 5.77,-21.89 3.85,-6.5 9.16,-11.58 15.94,-15.22 6.78,-3.65 14.41,-5.47 22.9,-5.47 6.66,0 12.71,1.09 18.14,3.27 5.43,2.18 10.05,5.37 13.86,9.57l-7.37 7.37c-6.66,-6.42 -14.71,-9.63 -24.15,-9.63 -6.34,0 -12.03,1.37 -17.07,4.1 -5.04,2.74 -8.98,6.54 -11.84,11.42 -2.85,4.88 -4.28,10.37 -4.28,16.47 0,6.03 1.43,11.48 4.28,16.36 2.86,4.88 6.8,8.7 11.84,11.48 5.03,2.78 10.69,4.16 16.95,4.16 7.45,0 13.96,-1.79 19.51,-5.35l0 -27.12z"/>
  <path id="2" class="fil1" d="M267.86 228.1l-44.25 0 -9.16 20.82 -12.25 0 37.71 -83.26 11.78 0 37.82 83.26 -12.49 0 -9.16 -20.82zm-4.16 -9.52l-17.96 -40.8 -17.96 40.8 35.92 0z"/>
  <path id="3" class="fil1" d="M311.16 196.46c1.98,-3.65 4.92,-6.42 8.8,-8.33 3.89,-1.9 8.6,-2.86 14.15,-2.86l0 11.06c-0.63,-0.08 -1.51,-0.12 -2.62,-0.12 -6.18,0 -11.04,1.84 -14.57,5.53 -3.53,3.69 -5.29,8.94 -5.29,15.76l0 31.4 -11.42 0 0 -63.04 10.94 0 0 10.59z"/>
  <path id="4" class="fil1" d="M386.22 245.23c-1.67,1.43 -3.73,2.52 -6.19,3.27 -2.46,0.75 -5,1.13 -7.61,1.13 -6.34,0 -11.26,-1.71 -14.75,-5.12 -3.49,-3.41 -5.23,-8.29 -5.23,-14.63l0 -34.61 -10.71 0 0 -9.4 10.71 0 0 -13.8 11.42 0 0 13.8 18.08 0 0 9.4 -18.08 0 0 34.14c0,3.41 0.85,6.03 2.56,7.85 1.71,1.82 4.14,2.74 7.32,2.74 3.49,0 6.46,-0.99 8.92,-2.97l3.57 8.21z"/>
  <path id="5" class="fil1" d="M400.01 185.88l11.42 0 0 63.04 -11.42 0 0 -63.04zm5.71 -12.13c-2.22,0 -4.06,-0.71 -5.53,-2.14 -1.47,-1.43 -2.2,-3.17 -2.2,-5.23 0,-2.06 0.73,-3.83 2.2,-5.29 1.47,-1.47 3.31,-2.2 5.53,-2.2 2.22,0 4.06,0.69 5.53,2.08 1.47,1.39 2.2,3.11 2.2,5.17 0,2.14 -0.73,3.94 -2.2,5.41 -1.47,1.47 -3.31,2.2 -5.53,2.2z"/>
  <path id="6" class="fil1" d="M451.28 249.63c-5.15,0 -10.11,-0.69 -14.87,-2.08 -4.76,-1.39 -8.48,-3.15 -11.18,-5.29l4.76 -9.04c2.78,1.98 6.15,3.57 10.11,4.76 3.96,1.19 7.97,1.78 12.01,1.78 9.99,0 14.99,-2.86 14.99,-8.56 0,-1.9 -0.67,-3.41 -2.02,-4.52 -1.35,-1.11 -3.03,-1.92 -5.05,-2.44 -2.02,-0.52 -4.9,-1.09 -8.62,-1.73 -5.07,-0.79 -9.22,-1.7 -12.43,-2.74 -3.21,-1.03 -5.97,-2.78 -8.27,-5.23 -2.3,-2.46 -3.45,-5.91 -3.45,-10.35 0,-5.71 2.38,-10.29 7.14,-13.74 4.76,-3.45 11.14,-5.17 19.15,-5.17 4.2,0 8.41,0.51 12.61,1.55 4.2,1.03 7.65,2.42 10.35,4.16l-4.88 9.04c-5.15,-3.33 -11.22,-5 -18.2,-5 -4.84,0 -8.52,0.79 -11.06,2.38 -2.54,1.59 -3.81,3.69 -3.81,6.31 0,2.06 0.71,3.69 2.14,4.88 1.43,1.19 3.19,2.06 5.29,2.62 2.1,0.55 5.05,1.19 8.86,1.9 5.07,0.87 9.18,1.8 12.31,2.8 3.13,0.99 5.81,2.68 8.03,5.05 2.22,2.38 3.33,5.71 3.33,9.99 0,5.71 -2.44,10.25 -7.31,13.62 -4.88,3.37 -11.52,5.06 -19.92,5.06z"/>
  <path id="7" class="fil1" d="M528.23 245.23c-1.67,1.43 -3.73,2.52 -6.19,3.27 -2.46,0.75 -5,1.13 -7.61,1.13 -6.34,0 -11.26,-1.71 -14.75,-5.12 -3.49,-3.41 -5.23,-8.29 -5.23,-14.63l0 -34.61 -10.71 0 0 -9.4 10.71 0 0 -13.8 11.42 0 0 13.8 18.08 0 0 9.4 -18.08 0 0 34.14c0,3.41 0.85,6.03 2.56,7.85 1.71,1.82 4.14,2.74 7.32,2.74 3.49,0 6.46,-0.99 8.92,-2.97l3.57 8.21z"/>
 </g>
</svg>
